PathFileType	4	(X/Y/Z)	OpenSim_Sub09_EMGBaseline_Accel.trc
DataRate	CameraRate	NumFrames	NumMarkers	Units	OrigDataRate	OrigDataStartFrame	OrigNumFrames
100	100	17	8	m	100	1	7301
Frame#	Time	torso_imu_offset_imu	pelvis_imu_offset_imu	tibia_r_imu_offset_imu	femur_r_imu_offset_imu	tibia_l_imu_offset_imu	femur_l_imu_offset_imu	toes_r_imu_offset_imu	toes_l_imu_offset_imu
				X1	Y1	Z1	X2	Y2	Z2	X3	Y3	Z3	X4	Y4	Z4	X5	Y5	Z5	X6	Y6	Z6	X7	Y7	Z7	X8		Y8	Z8	

1	0	9.14125000	0.25636900	6.42053700	9.70394700	-0.65962500	2.16208600	9.77310300	1.48366800	1.29019400	9.71947700	-0.38734100	0.71716900	9.66774600	-1.03990300	1.54753700	9.70350600	1.53522400	-0.19348800	5.31309500	-1.88563300	8.20161000	4.99835700	2.39220800	10.81872200
2	0.01000000	9.16178100	0.26472100	6.45854300	9.67716500	-0.63803700	2.16702100	9.69954400	1.48517900	1.25853500	9.73034000	-0.34196500	0.77969300	9.66465500	-1.08917200	1.53676900	9.70017800	1.50444700	-0.17957600	5.33052100	-1.89308400	8.23046900	5.02945200	2.40297900	10.82230800
3	0.02000000	9.13714300	0.26001900	6.42623300	9.65125000	-0.66262000	2.13358100	9.74618700	1.46187900	1.24676000	9.69743200	-0.34833800	0.77249400	9.66772600	-1.09581800	1.55930200	9.70453600	1.51276700	-0.20294500	5.32934300	-1.91070600	8.24723900	4.98684900	2.40530200	10.86631200
4	0.03000000	9.11614400	0.28974300	6.43622700	9.67240900	-0.67053900	2.15889500	9.73680400	1.47711500	1.31981900	9.68667000	-0.34173900	0.74244400	9.66614900	-1.12111400	1.55356700	9.70684500	1.46647300	-0.22014500	5.34822900	-1.88223000	8.24329500	4.99409500	2.39150600	10.82084500
5	0.04000000	9.12234200	0.23249000	6.44495000	9.66148600	-0.69088200	2.18303800	9.77016700	1.47108100	1.31890100	9.67592100	-0.33460100	0.71265900	9.62378700	-1.07840200	1.59364000	9.70133900	1.48093300	-0.19080700	5.32846400	-1.91021100	8.24792200	5.02529900	2.40242200	10.82436100
6	0.05000000	9.11504500	0.21301200	6.43869600	9.67287400	-0.66921100	2.15722500	9.73751700	1.49320600	1.30380500	9.66451100	-0.36621700	0.71226900	9.65242500	-1.00923700	1.60521100	9.67415300	1.44960700	-0.18239400	5.32900400	-1.89179100	8.23174800	4.99860800	2.41920700	10.84117300
7	0.06000000	9.14088200	0.21827100	6.42390700	9.68603000	-0.65633300	2.17323800	9.73292500	1.45028100	1.36390400	9.67565400	-0.36549700	0.67369700	9.67342400	-1.00652000	1.57793200	9.70264500	1.45640700	-0.20195200	5.32580300	-1.91462600	8.20663400	5.00138000	2.41224200	10.81885400
8	0.07000000	9.10345600	0.20926500	6.46926000	9.68094700	-0.68954800	2.16639400	9.74592100	1.43433400	1.35369400	9.68613300	-0.37091700	0.70773700	9.69596400	-0.97985100	1.55575700	9.70164300	1.47834500	-0.19537800	5.29197600	-1.92439600	8.26668600	4.98402000	2.39787300	10.84666200
9	0.08000000	9.18544400	0.23251000	6.44965500	9.66196800	-0.68928000	2.18140900	9.82637100	1.40429900	1.33870900	9.69660900	-0.37641000	0.74165200	9.69279100	-1.02897200	1.54531300	9.70504800	1.50833100	-0.21129100	5.30827300	-1.91870700	8.23724600	4.99005500	2.42553400	10.86629400
10	0.09000000	9.20947000	0.25069600	6.46828500	9.71319000	-0.67621600	2.16713900	9.79564500	1.33870100	1.35076900	9.71868300	-0.32983700	0.76348800	9.71846800	-1.00715700	1.54652700	9.73361100	1.51467700	-0.23059000	5.32663500	-1.90797500	8.24962000	4.99748900	2.41180000	10.82075000
11	0.10000000	9.14852600	0.23542100	6.47977200	9.70726400	-0.66331000	2.19855300	9.76292800	1.36056100	1.33647500	9.72876200	-0.32183700	0.85549200	9.66538500	-1.07810500	1.53784600	9.70545900	1.50534500	-0.21371800	5.30854800	-1.89974800	8.22136800	4.99224900	2.41848800	10.84426300
12	0.11000000	9.15400100	0.26851900	6.47406100	9.69434100	-0.67535100	2.18176100	9.73018600	1.38277600	1.32202700	9.70782200	-0.25514900	0.82187700	9.63958400	-1.10227200	1.53576500	9.71005200	1.51194200	-0.23749300	5.34260300	-1.90226200	8.22040400	5.01663100	2.40132400	10.82862400
13	0.12000000	9.20485200	0.30159800	6.50740000	9.66944200	-0.66242100	2.22811000	9.75998200	1.45047400	1.31454300	9.71829200	-0.29282100	0.81280200	9.63958800	-1.10349000	1.53486600	9.68302200	1.47950100	-0.22887100	5.32654200	-1.88899700	8.23398300	5.01117300	2.40789600	10.85226200
14	0.13000000	9.13508100	0.33199500	6.48282900	9.65655200	-0.67437800	2.21121200	9.75598900	1.52532200	1.30955500	9.65381700	-0.27812400	0.70926000	9.66372100	-1.10580400	1.53075600	9.70613100	1.50038500	-0.21804200	5.32612900	-1.88854100	8.23435500	4.97742500	2.39689700	10.84990600
15	0.14000000	9.15423500	0.31587500	6.46131500	9.62646300	-0.69481200	2.25121300	9.75901900	1.62635100	1.32575200	9.68621900	-0.32270400	0.69126300	9.67900200	-1.02740800	1.62182300	9.68233600	1.49925400	-0.22435800	5.32503500	-1.90625000	8.25105200	5.02481600	2.42205600	10.82623900
16	0.15000000	9.12561500	0.32590400	6.46527700	9.62652800	-0.69415400	2.25113800	9.76889700	1.58117200	1.35653000	9.67528500	-0.33408700	0.67540000	9.62753500	-0.96841600	1.59151300	9.70653800	1.49724900	-0.22145700	5.29058100	-1.90318300	8.25239600	4.97733000	2.44902500	10.83596500
17	0.16000000	9.13902400	0.30160300	6.46613900	9.65868700	-0.68108300	2.25215000	9.77327700	1.52317100	1.34737300	9.72933700	-0.31965700	0.73584400	9.65324100	-0.89340000	1.57981900	9.70782300	1.47273500	-0.23105400	5.34429700	-1.87714200	8.24700500	5.00707200	2.40712100	10.85432600
